<svg xmlns="http://www.w3.org/2000/svg" version="1.1" xmlns:xlink="http://www.w3.org/1999/xlink" xmlns:svgjs="http://svgjs.dev/svgjs" width="1500" height="935" viewBox="0 0 1500 935"><g transform="matrix(1,0,0,1,-0.9090909090909918,0.3785425101214628)"><svg viewBox="0 0 396 247" data-background-color="#ddd1a9" preserveAspectRatio="xMidYMid meet" height="935" width="1500" xmlns="http://www.w3.org/2000/svg" xmlns:xlink="http://www.w3.org/1999/xlink"><g id="tight-bounds" transform="matrix(1,0,0,1,0.2400000000000091,-0.09999999999999432)"><svg viewBox="0 0 395.52 247.2" height="247.2" width="395.52"><g><svg></svg></g><g><svg viewBox="0 0 395.52 247.2" height="247.2" width="395.52"><g transform="matrix(1,0,0,1,115.83832677131343,47.215199999999996)"><svg viewBox="0 0 163.84334645737312 152.7696" height="152.7696" width="163.84334645737312"><g><svg viewBox="0 0 163.84334645737312 152.7696" height="152.7696" width="163.84334645737312"><g><svg viewBox="0 0 244.43135999999998 227.9108789100028" height="152.7696" width="163.84334645737312"><g><svg viewBox="0 0 244.43135999999998 227.9108789100028" height="227.9108789100028" width="244.43135999999998"><g id="textblocktransform"><svg viewBox="0 0 244.43135999999998 227.9108789100028" height="227.9108789100028" width="244.43135999999998" id="textblock"><g><svg viewBox="0 0 244.43135999999998 128.46777855641207" height="128.46777855641207" width="244.43135999999998"><g transform="matrix(1,0,0,1,0,0)"><svg width="244.43135999999998" viewBox="3.1 -37.5 71.34 37.5" height="128.46777855641207" data-palette-color="#3f3a36"><path d="M18.1 0L6.7 0Q5.2 0 4.15-1.05 3.1-2.1 3.1-3.6L3.1-3.6 3.1-11.2 7.75-10.15 7.75-6.45Q7.75-5.7 8.28-5.18 8.8-4.65 9.55-4.65L9.55-4.65 15.25-4.65Q15.95-4.65 16.5-5.18 17.05-5.7 17.05-6.45L17.05-6.45 17.05-35 21.65-35 21.65-3.6Q21.65-2.1 20.6-1.05 19.55 0 18.1 0L18.1 0ZM40.85 0L30.4 0Q28.85 0 27.8-1.05 26.75-2.1 26.75-3.65L26.75-3.65 26.75-25 31.45-25 31.45-6.5Q31.45-5.8 32-5.25 32.55-4.7 33.25-4.7L33.25-4.7 36.15-4.7 36.15-25 40.85-25 40.85 0ZM49.05 0L44.34 0 44.34-36.35 49.05-37.4 49.05 0ZM57.24-32.8L52.54-31.7 52.54-36.4 57.24-37.5 57.24-32.8ZM57.34 0L52.64 0 52.64-23.9 57.34-25 57.34 0ZM74.44 0L63.99 0Q62.49 0 61.42-1.05 60.34-2.1 60.34-3.65L60.34-3.65 60.34-11.2Q60.34-12.7 61.42-13.78 62.49-14.85 63.99-14.85L63.99-14.85 67.89-14.85Q68.69-14.85 69.22-15.38 69.74-15.9 69.74-16.65L69.74-16.65 69.74-18.5Q69.74-19.25 69.22-19.78 68.69-20.3 67.89-20.3L67.89-20.3 62.49-20.3 63.54-25 70.79-25Q72.29-25 73.37-23.93 74.44-22.85 74.44-21.35L74.44-21.35 74.44 0ZM66.84-4.7L66.84-4.7 69.74-4.7 69.74-10.15 66.84-10.15Q66.09-10.15 65.56-9.63 65.04-9.1 65.04-8.35L65.04-8.35 65.04-6.5Q65.04-5.75 65.56-5.23 66.09-4.7 66.84-4.7Z" opacity="1" transform="matrix(1,0,0,1,0,0)" fill="#3f3a36" class="wordmark-text-0" data-fill-palette-color="primary" id="text-0"></path></svg></g></svg></g><g transform="matrix(1,0,0,1,0,158.7959378468956)"><svg viewBox="0 0 244.43135999999998 69.11494106310718" height="69.11494106310718" width="244.43135999999998"><g transform="matrix(1,0,0,1,0,0)"><svg width="244.43135999999998" viewBox="0.440277722225 -35.3 126.599722277775 35.8" height="69.11494106310718" data-palette-color="#3f3a36"><path d="M12.65 0L6.6 0Q6.4 0 6.35-0.25L6.35-0.25 0.45-34.6Q0.4-34.8 0.6-34.8L0.6-34.8 6.2-34.8Q6.4-34.8 6.45-34.6L6.45-34.6 9.65-12 12.95-34.6Q13-34.8 13.25-34.8L13.25-34.8 17.75-34.8Q17.95-34.8 18-34.6L18-34.6 21.25-12 24.5-34.6Q24.55-34.8 24.75-34.8L24.75-34.8 30.3-34.8Q30.55-34.8 30.5-34.6L30.5-34.6 24.55-0.25Q24.5-0.15 24.4-0.08 24.3 0 24.3 0L24.3 0 18.25 0Q18.1 0 18-0.25L18-0.25 15.45-18.2 12.9-0.25Q12.85 0 12.65 0L12.65 0ZM39.3 0L33.65 0Q33.45 0 33.45-0.25L33.45-0.25 33.55-34.6Q33.55-34.8 33.75-34.8L33.75-34.8 43.85-34.8Q46.55-34.8 48.82-33.48 51.1-32.15 52.45-29.93 53.8-27.7 53.8-24.9L53.8-24.9Q53.8-23.05 53.25-21.58 52.7-20.1 51.95-19.07 51.2-18.05 50.6-17.55L50.6-17.55Q53.3-14.55 53.3-10.5L53.3-10.5 53.35-0.25Q53.35 0 53.1 0L53.1 0 47.45 0Q47.25 0 47.25-0.15L47.25-0.15 47.25-10.5Q47.25-12.3 45.97-13.63 44.7-14.95 42.85-14.95L42.85-14.95 39.55-14.95 39.5-0.25Q39.5 0 39.3 0L39.3 0ZM39.55-28.8L39.55-20.95 43.85-20.95Q45.4-20.95 46.6-22.1 47.8-23.25 47.8-24.9L47.8-24.9Q47.8-26.5 46.62-27.65 45.45-28.8 43.85-28.8L43.85-28.8 39.55-28.8ZM63.45 0L57.8 0Q57.55 0 57.55-0.25L57.55-0.25 57.59-34.6Q57.59-34.8 57.8-34.8L57.8-34.8 63.4-34.8Q63.59-34.8 63.59-34.6L63.59-34.6 63.65-0.25Q63.65 0 63.45 0L63.45 0ZM78.69 0L73.04 0Q72.84 0 72.84-0.25L72.84-0.25 72.84-28.75 66.34-28.75Q66.09-28.75 66.09-29L66.09-29 66.14-34.6Q66.14-34.8 66.34-34.8L66.34-34.8 85.34-34.8Q85.59-34.8 85.59-34.6L85.59-34.6 85.59-29Q85.59-28.75 85.39-28.75L85.39-28.75 78.84-28.75 78.89-0.25Q78.89 0 78.69 0L78.69 0ZM104.39 0L88.24 0Q88.04 0 88.04-0.25L88.04-0.25 88.09-34.6Q88.09-34.8 88.29-34.8L88.29-34.8 104.34-34.8Q104.54-34.8 104.54-34.55L104.54-34.55 104.54-28.95Q104.54-28.75 104.34-28.75L104.34-28.75 94.09-28.75 94.09-20.95 104.34-20.95Q104.54-20.95 104.54-20.75L104.54-20.75 104.59-15.1Q104.59-14.9 104.39-14.9L104.39-14.9 94.09-14.9 94.09-6.15 104.39-6.15Q104.59-6.15 104.59-5.9L104.59-5.9 104.59-0.2Q104.59 0 104.39 0L104.39 0ZM117.24 0.5L117.24 0.5Q114.54 0.5 112.31-0.88 110.09-2.25 108.76-4.53 107.44-6.8 107.44-9.55L107.44-9.55 107.44-11.85Q107.44-12.1 107.69-12.1L107.69-12.1 113.29-12.1Q113.49-12.1 113.49-11.85L113.49-11.85 113.49-9.55Q113.49-7.9 114.59-6.73 115.69-5.55 117.24-5.55L117.24-5.55Q118.79-5.55 119.89-6.75 120.99-7.95 120.99-9.55L120.99-9.55Q120.99-11.4 118.59-12.75L118.59-12.75Q117.79-13.2 116.09-14.15 114.39-15.1 112.89-15.95L112.89-15.95Q110.14-17.55 108.81-19.98 107.49-22.4 107.49-25.45L107.49-25.45Q107.49-28.25 108.84-30.48 110.19-32.7 112.41-34 114.64-35.3 117.24-35.3L117.24-35.3Q119.89-35.3 122.11-33.98 124.34-32.65 125.66-30.43 126.99-28.2 126.99-25.45L126.99-25.45 126.99-21.35Q126.99-21.15 126.79-21.15L126.79-21.15 121.19-21.15Q120.99-21.15 120.99-21.35L120.99-21.35 120.94-25.45Q120.94-27.2 119.84-28.3 118.74-29.4 117.24-29.4L117.24-29.4Q115.69-29.4 114.59-28.23 113.49-27.05 113.49-25.45L113.49-25.45Q113.49-23.8 114.19-22.7 114.89-21.6 116.74-20.6L116.74-20.6Q116.99-20.45 117.71-20.08 118.44-19.7 119.29-19.23 120.14-18.75 120.81-18.4 121.49-18.05 121.64-17.95L121.64-17.95Q124.14-16.55 125.59-14.53 127.04-12.5 127.04-9.55L127.04-9.55Q127.04-6.7 125.71-4.42 124.39-2.15 122.16-0.83 119.94 0.5 117.24 0.5Z" opacity="1" transform="matrix(1,0,0,1,0,0)" fill="#3f3a36" class="slogan-text-1" data-fill-palette-color="secondary" id="text-1"></path></svg></g></svg></g></svg></g></svg></g></svg></g></svg></g></svg></g><path d="M292.128 41.215L292.128 0 44.928 0 44.928 247.2 292.128 247.2 292.128 205.985 284.363 205.985 284.363 239.434 52.694 239.434 52.694 7.766 284.363 7.766 284.363 41.215Z" fill="#3f3a36" stroke="transparent" data-fill-palette-color="tertiary"></path></svg></g><defs></defs></svg><rect width="395.52" height="247.2" fill="none" stroke="none" visibility="hidden"></rect></g></svg></g></svg>